<?xml version="1.0" encoding="UTF-8" standalone="no"?>
<!DOCTYPE svg PUBLIC "-//W3C//DTD SVG 1.1//EN"
 "http://www.w3.org/Graphics/SVG/1.1/DTD/svg11.dtd">
<!-- Generated by graphviz version 14.0.0 (0)
 -->
<!-- Title: FamilyTree Pages: 1 -->
<svg width="940pt" height="195pt"
 viewBox="0.00 0.00 940.00 195.00" xmlns="http://www.w3.org/2000/svg" xmlns:xlink="http://www.w3.org/1999/xlink">
<g id="graph0" class="graph" transform="scale(1 1) rotate(0) translate(4 190.57)">
<title>FamilyTree</title>
<polygon fill="white" stroke="none" points="-4,4 -4,-190.57 935.62,-190.57 935.62,4 -4,4"/>
<!-- KamatchiAsari -->
<g id="node1" class="node">
<title>KamatchiAsari</title>
<polygon fill="none" stroke="blue" points="293.62,-184.92 168.88,-184.92 168.88,-148.92 293.62,-148.92 293.62,-184.92"/>
<text xml:space="preserve" text-anchor="middle" x="231.25" y="-152.87" font-family="Times,serif" font-size="14.00">Kamatchi Asari</text>
</g>
<!-- KANM -->
<g id="node3" class="node">
<title>KANM</title>
<ellipse fill="none" stroke="green" cx="331.25" cy="-166.92" rx="19.64" ry="19.64"/>
<text xml:space="preserve" text-anchor="middle" x="331.25" y="-162.25" font-family="Times,serif" font-size="14.00">+</text>
</g>
<!-- KamatchiAsari&#45;&#45;KANM -->
<g id="edge1" class="edge">
<title>KamatchiAsari&#45;&#45;KANM</title>
<path fill="none" stroke="black" d="M293.75,-166.92C299.61,-166.92 305.47,-166.92 311.33,-166.92"/>
</g>
<!-- NachiMuthamma -->
<g id="node2" class="node">
<title>NachiMuthamma</title>
<polygon fill="none" stroke="red" points="512,-184.92 368.5,-184.92 368.5,-148.92 512,-148.92 512,-184.92"/>
<text xml:space="preserve" text-anchor="middle" x="440.25" y="-152.87" font-family="Times,serif" font-size="14.00">Nachi Muthamma</text>
</g>
<!-- KANM&#45;&#45;NachiMuthamma -->
<g id="edge2" class="edge">
<title>KANM&#45;&#45;NachiMuthamma</title>
<path fill="none" stroke="black" d="M351.26,-166.92C356.94,-166.92 362.62,-166.92 368.29,-166.92"/>
</g>
<!-- JayaramKamatchi -->
<g id="node4" class="node">
<title>JayaramKamatchi</title>
<polygon fill="none" stroke="blue" points="146.5,-109.64 0,-109.64 0,-73.64 146.5,-73.64 146.5,-109.64"/>
<text xml:space="preserve" text-anchor="middle" x="73.25" y="-77.59" font-family="Times,serif" font-size="14.00">Jayaram Kamatchi</text>
</g>
<!-- KANM&#45;&#45;JayaramKamatchi -->
<g id="edge3" class="edge">
<title>KANM&#45;&#45;JayaramKamatchi</title>
<path fill="none" stroke="blue" d="M315.53,-154.46C311.36,-151.81 306.77,-149.21 302.25,-147.28 294.89,-144.15 210.95,-124.43 146.81,-109.57"/>
</g>
<!-- RajumaniKamatchi -->
<g id="node5" class="node">
<title>RajumaniKamatchi</title>
<polygon fill="none" stroke="blue" points="320,-109.64 164.5,-109.64 164.5,-73.64 320,-73.64 320,-109.64"/>
<text xml:space="preserve" text-anchor="middle" x="242.25" y="-77.59" font-family="Times,serif" font-size="14.00">Rajumani Kamatchi</text>
</g>
<!-- KANM&#45;&#45;RajumaniKamatchi -->
<g id="edge4" class="edge">
<title>KANM&#45;&#45;RajumaniKamatchi</title>
<path fill="none" stroke="green" d="M316.55,-153.82C302.04,-141.87 279.69,-123.47 263.3,-109.97"/>
</g>
<!-- SubramaniKamatchi -->
<g id="node6" class="node">
<title>SubramaniKamatchi</title>
<polygon fill="none" stroke="blue" points="504.25,-109.64 338.25,-109.64 338.25,-73.64 504.25,-73.64 504.25,-109.64"/>
<text xml:space="preserve" text-anchor="middle" x="421.25" y="-77.59" font-family="Times,serif" font-size="14.00">Subramani Kamatchi</text>
</g>
<!-- KANM&#45;&#45;SubramaniKamatchi -->
<g id="edge5" class="edge">
<title>KANM&#45;&#45;SubramaniKamatchi</title>
<path fill="none" stroke="blue" d="M346.11,-153.82C360.79,-141.87 383.39,-123.47 399.97,-109.97"/>
</g>
<!-- GanesanKamatchi -->
<g id="node7" class="node">
<title>GanesanKamatchi</title>
<polygon fill="none" stroke="blue" points="672,-109.64 522.5,-109.64 522.5,-73.64 672,-73.64 672,-109.64"/>
<text xml:space="preserve" text-anchor="middle" x="597.25" y="-77.59" font-family="Times,serif" font-size="14.00">Ganesan Kamatchi</text>
</g>
<!-- KANM&#45;&#45;GanesanKamatchi -->
<g id="edge6" class="edge">
<title>KANM&#45;&#45;GanesanKamatchi</title>
<path fill="none" stroke="blue" d="M346.67,-154.23C350.62,-151.64 354.96,-149.13 359.25,-147.28 363.12,-145.62 453.99,-124.94 522.3,-109.51"/>
</g>
<!-- GKMG -->
<g id="node9" class="node">
<title>GKMG</title>
<ellipse fill="none" stroke="green" cx="709.25" cy="-91.64" rx="19.64" ry="19.64"/>
<text xml:space="preserve" text-anchor="middle" x="709.25" y="-86.97" font-family="Times,serif" font-size="14.00">+</text>
</g>
<!-- GanesanKamatchi&#45;&#45;GKMG -->
<g id="edge7" class="edge">
<title>GanesanKamatchi&#45;&#45;GKMG</title>
<path fill="none" stroke="black" d="M672.5,-91.64C678.05,-91.64 683.6,-91.64 689.15,-91.64"/>
</g>
<!-- MuthulakshmiGanesan -->
<g id="node8" class="node">
<title>MuthulakshmiGanesan</title>
<polygon fill="none" stroke="red" points="931.62,-109.64 746.88,-109.64 746.88,-73.64 931.62,-73.64 931.62,-109.64"/>
<text xml:space="preserve" text-anchor="middle" x="839.25" y="-77.59" font-family="Times,serif" font-size="14.00">Muthulakshmi Ganesan</text>
</g>
<!-- GKMG&#45;&#45;MuthulakshmiGanesan -->
<g id="edge8" class="edge">
<title>GKMG&#45;&#45;MuthulakshmiGanesan</title>
<path fill="none" stroke="black" d="M729.31,-91.64C735.03,-91.64 740.76,-91.64 746.49,-91.64"/>
</g>
<!-- GopiKrishnanGanesan -->
<g id="node10" class="node">
<title>GopiKrishnanGanesan</title>
<polygon fill="none" stroke="blue" points="711,-36 531.5,-36 531.5,0 711,0 711,-36"/>
<text xml:space="preserve" text-anchor="middle" x="621.25" y="-3.95" font-family="Times,serif" font-size="14.00">GopiKrishnan Ganesan</text>
</g>
<!-- GKMG&#45;&#45;GopiKrishnanGanesan -->
<g id="edge9" class="edge">
<title>GKMG&#45;&#45;GopiKrishnanGanesan</title>
<path fill="none" stroke="blue" d="M694.32,-78.49C680.1,-66.91 658.55,-49.36 642.53,-36.32"/>
</g>
<!-- NaveenGanesan -->
<g id="node11" class="node">
<title>NaveenGanesan</title>
<polygon fill="none" stroke="blue" points="865.25,-36 729.25,-36 729.25,0 865.25,0 865.25,-36"/>
<text xml:space="preserve" text-anchor="middle" x="797.25" y="-3.95" font-family="Times,serif" font-size="14.00">Naveen Ganesan</text>
</g>
<!-- GKMG&#45;&#45;NaveenGanesan -->
<g id="edge10" class="edge">
<title>GKMG&#45;&#45;NaveenGanesan</title>
<path fill="none" stroke="blue" d="M724.18,-78.49C738.4,-66.91 759.95,-49.36 775.97,-36.32"/>
</g>
</g>
</svg>
