<?xml version="1.0" encoding="UTF-8" standalone="no"?>
<!DOCTYPE svg PUBLIC "-//W3C//DTD SVG 1.1//EN"
 "http://www.w3.org/Graphics/SVG/1.1/DTD/svg11.dtd">
<!-- Generated by graphviz version 14.0.0 (0)
 -->
<!-- Title: FamilyTree Pages: 1 -->
<svg width="1450pt" height="195pt"
 viewBox="0.00 0.00 1450.00 195.00" xmlns="http://www.w3.org/2000/svg" xmlns:xlink="http://www.w3.org/1999/xlink">
<g id="graph0" class="graph" transform="scale(1 1) rotate(0) translate(4 190.57)">
<title>FamilyTree</title>
<polygon fill="white" stroke="none" points="-4,4 -4,-190.57 1445.62,-190.57 1445.62,4 -4,4"/>
<!-- KamatchiAsari -->
<g id="node1" class="node">
<title>KamatchiAsari</title>
<polygon fill="none" stroke="blue" points="441.75,-184.92 317,-184.92 317,-148.92 441.75,-148.92 441.75,-184.92"/>
<text xml:space="preserve" text-anchor="middle" x="379.38" y="-152.87" font-family="Times,serif" font-size="14.00">Kamatchi Asari</text>
</g>
<!-- KANM -->
<g id="node4" class="node">
<title>KANM</title>
<ellipse fill="none" stroke="green" cx="513.38" cy="-166.92" rx="19.64" ry="19.64"/>
<text xml:space="preserve" text-anchor="middle" x="513.38" y="-162.25" font-family="Times,serif" font-size="14.00">+</text>
</g>
<!-- KamatchiAsari&#45;&#45;KANM -->
<g id="edge3" class="edge">
<title>KamatchiAsari&#45;&#45;KANM</title>
<path fill="none" stroke="black" d="M442.19,-166.92C459.24,-166.92 476.3,-166.92 493.35,-166.92"/>
</g>
<!-- NachiMuthamma -->
<g id="node2" class="node">
<title>NachiMuthamma</title>
<polygon fill="none" stroke="red" points="694.12,-184.92 550.62,-184.92 550.62,-148.92 694.12,-148.92 694.12,-184.92"/>
<text xml:space="preserve" text-anchor="middle" x="622.38" y="-152.87" font-family="Times,serif" font-size="14.00">Nachi Muthamma</text>
</g>
<!-- Subbammal -->
<g id="node3" class="node">
<title>Subbammal</title>
<polygon fill="none" stroke="red" points="172.75,-184.92 0,-184.92 0,-148.92 172.75,-148.92 172.75,-184.92"/>
<text xml:space="preserve" text-anchor="middle" x="86.38" y="-152.87" font-family="Times,serif" font-size="14.00">Subbammal Kamatchi</text>
</g>
<!-- KASM -->
<g id="node5" class="node">
<title>KASM</title>
<ellipse fill="none" stroke="green" cx="210.38" cy="-166.92" rx="19.64" ry="19.64"/>
<text xml:space="preserve" text-anchor="middle" x="210.38" y="-162.25" font-family="Times,serif" font-size="14.00">+</text>
</g>
<!-- Subbammal&#45;&#45;KASM -->
<g id="edge1" class="edge">
<title>Subbammal&#45;&#45;KASM</title>
<path fill="none" stroke="black" d="M173.08,-166.92C178.81,-166.92 184.54,-166.92 190.27,-166.92"/>
</g>
<!-- KANM&#45;&#45;NachiMuthamma -->
<g id="edge4" class="edge">
<title>KANM&#45;&#45;NachiMuthamma</title>
<path fill="none" stroke="black" d="M533.39,-166.92C539.06,-166.92 544.74,-166.92 550.42,-166.92"/>
</g>
<!-- JayaramKamatchi -->
<g id="node9" class="node">
<title>JayaramKamatchi</title>
<polygon fill="none" stroke="blue" points="1441.62,-109.64 1295.12,-109.64 1295.12,-73.64 1441.62,-73.64 1441.62,-109.64"/>
<text xml:space="preserve" text-anchor="middle" x="1368.38" y="-77.59" font-family="Times,serif" font-size="14.00">Jayaram Kamatchi</text>
</g>
<!-- KANM&#45;&#45;JayaramKamatchi -->
<g id="edge6" class="edge">
<title>KANM&#45;&#45;JayaramKamatchi</title>
<path fill="none" stroke="blue" d="M528.29,-153.87C532.32,-151.23 536.83,-148.78 541.38,-147.28 698.82,-95.49 1122.15,-133.74 1286.38,-111.28 1289.12,-110.91 1291.92,-110.48 1294.73,-110.02"/>
</g>
<!-- RajumaniKamatchi -->
<g id="node10" class="node">
<title>RajumaniKamatchi</title>
<polygon fill="none" stroke="red" points="591.12,-109.64 435.62,-109.64 435.62,-73.64 591.12,-73.64 591.12,-109.64"/>
<text xml:space="preserve" text-anchor="middle" x="513.38" y="-77.59" font-family="Times,serif" font-size="14.00">Rajumani Kamatchi</text>
</g>
<!-- KANM&#45;&#45;RajumaniKamatchi -->
<g id="edge7" class="edge">
<title>KANM&#45;&#45;RajumaniKamatchi</title>
<path fill="none" stroke="green" d="M513.38,-147.05C513.38,-135.6 513.38,-121.1 513.38,-109.94"/>
</g>
<!-- SubramaniKamatchi -->
<g id="node11" class="node">
<title>SubramaniKamatchi</title>
<polygon fill="none" stroke="blue" points="775.38,-109.64 609.38,-109.64 609.38,-73.64 775.38,-73.64 775.38,-109.64"/>
<text xml:space="preserve" text-anchor="middle" x="692.38" y="-77.59" font-family="Times,serif" font-size="14.00">Subramani Kamatchi</text>
</g>
<!-- KANM&#45;&#45;SubramaniKamatchi -->
<g id="edge8" class="edge">
<title>KANM&#45;&#45;SubramaniKamatchi</title>
<path fill="none" stroke="blue" d="M528.97,-154.59C532.91,-152 537.2,-149.39 541.38,-147.28 570.87,-132.4 605.41,-119.59 634.01,-110.12"/>
</g>
<!-- GanesanKamatchi -->
<g id="node12" class="node">
<title>GanesanKamatchi</title>
<polygon fill="none" stroke="blue" points="417.12,-109.64 267.62,-109.64 267.62,-73.64 417.12,-73.64 417.12,-109.64"/>
<text xml:space="preserve" text-anchor="middle" x="342.38" y="-77.59" font-family="Times,serif" font-size="14.00">Ganesan Kamatchi</text>
</g>
<!-- KANM&#45;&#45;GanesanKamatchi -->
<g id="edge9" class="edge">
<title>KANM&#45;&#45;GanesanKamatchi</title>
<path fill="none" stroke="blue" d="M495.4,-158.22C468.9,-146.87 418.65,-125.33 382.97,-110.04"/>
</g>
<!-- KASM&#45;&#45;KamatchiAsari -->
<g id="edge2" class="edge">
<title>KASM&#45;&#45;KamatchiAsari</title>
<path fill="none" stroke="black" d="M230.51,-166.92C259.2,-166.92 287.88,-166.92 316.57,-166.92"/>
</g>
<!-- RamarajKamatchi -->
<g id="node6" class="node">
<title>RamarajKamatchi</title>
<polygon fill="none" stroke="blue" points="249.38,-109.64 101.38,-109.64 101.38,-73.64 249.38,-73.64 249.38,-109.64"/>
<text xml:space="preserve" text-anchor="middle" x="175.38" y="-77.59" font-family="Times,serif" font-size="14.00">Ramaraj Kamatchi</text>
</g>
<!-- KASM&#45;&#45;RamarajKamatchi -->
<g id="edge5" class="edge">
<title>KASM&#45;&#45;RamarajKamatchi</title>
<path fill="none" stroke="blue" d="M202.26,-148.93C196.68,-137.26 189.31,-121.81 183.69,-110.05"/>
</g>
<!-- JayalakshmiRamaraj -->
<g id="node7" class="node">
<title>JayalakshmiRamaraj</title>
<polygon fill="none" stroke="red" points="1219.38,-109.64 1053.38,-109.64 1053.38,-73.64 1219.38,-73.64 1219.38,-109.64"/>
<text xml:space="preserve" text-anchor="middle" x="1136.38" y="-77.59" font-family="Times,serif" font-size="14.00">Ramaraj Jayalakshmi</text>
</g>
<!-- RKJR -->
<g id="node8" class="node">
<title>RKJR</title>
<ellipse fill="none" stroke="green" cx="1257.38" cy="-91.64" rx="19.64" ry="19.64"/>
<text xml:space="preserve" text-anchor="middle" x="1257.38" y="-86.97" font-family="Times,serif" font-size="14.00">+</text>
</g>
<!-- JayalakshmiRamaraj&#45;&#45;RKJR -->
<g id="edge10" class="edge">
<title>JayalakshmiRamaraj&#45;&#45;RKJR</title>
<path fill="none" stroke="black" d="M1219.56,-91.64C1225.47,-91.64 1231.38,-91.64 1237.29,-91.64"/>
</g>
<!-- RKJR&#45;&#45;RamarajKamatchi -->
<g id="edge11" class="edge">
<title>RKJR&#45;&#45;RamarajKamatchi</title>
<path fill="none" stroke="black" d="M1245.98,-107.85C1239.27,-115.93 1230.02,-124.9 1219.38,-129.28 1170.46,-149.41 319.27,-139.49 267.38,-129.28 248.07,-125.49 227.72,-117.61 211.07,-110.03"/>
</g>
<!-- LathaRamaraj -->
<g id="node15" class="node">
<title>LathaRamaraj</title>
<polygon fill="none" stroke="red" points="1317.88,-36 1196.88,-36 1196.88,0 1317.88,0 1317.88,-36"/>
<text xml:space="preserve" text-anchor="middle" x="1257.38" y="-3.95" font-family="Times,serif" font-size="14.00">Latha Ramaraj</text>
</g>
<!-- RKJR&#45;&#45;LathaRamaraj -->
<g id="edge14" class="edge">
<title>RKJR&#45;&#45;LathaRamaraj</title>
<path fill="none" stroke="blue" d="M1257.38,-71.82C1257.38,-60.87 1257.38,-47.17 1257.38,-36.47"/>
</g>
<!-- GKMG -->
<g id="node14" class="node">
<title>GKMG</title>
<ellipse fill="none" stroke="green" cx="813.38" cy="-91.64" rx="19.64" ry="19.64"/>
<text xml:space="preserve" text-anchor="middle" x="813.38" y="-86.97" font-family="Times,serif" font-size="14.00">+</text>
</g>
<!-- GanesanKamatchi&#45;&#45;GKMG -->
<g id="edge12" class="edge">
<title>GanesanKamatchi&#45;&#45;GKMG</title>
<path fill="none" stroke="black" d="M378.48,-110.03C395.31,-117.61 415.88,-125.49 435.38,-129.28 509.54,-143.72 705.5,-158.03 775.38,-129.28 786.02,-124.9 795.27,-115.93 801.98,-107.85"/>
</g>
<!-- MuthulakshmiGanesan -->
<g id="node13" class="node">
<title>MuthulakshmiGanesan</title>
<polygon fill="none" stroke="red" points="1035.75,-109.64 851,-109.64 851,-73.64 1035.75,-73.64 1035.75,-109.64"/>
<text xml:space="preserve" text-anchor="middle" x="943.38" y="-77.59" font-family="Times,serif" font-size="14.00">Muthulakshmi Ganesan</text>
</g>
<!-- GKMG&#45;&#45;MuthulakshmiGanesan -->
<g id="edge13" class="edge">
<title>GKMG&#45;&#45;MuthulakshmiGanesan</title>
<path fill="none" stroke="black" d="M833.43,-91.64C839.16,-91.64 844.89,-91.64 850.61,-91.64"/>
</g>
<!-- GopiKrishnanGanesan -->
<g id="node18" class="node">
<title>GopiKrishnanGanesan</title>
<polygon fill="none" stroke="blue" points="991.12,-36 811.62,-36 811.62,0 991.12,0 991.12,-36"/>
<text xml:space="preserve" text-anchor="middle" x="901.38" y="-3.95" font-family="Times,serif" font-size="14.00">GopiKrishnan Ganesan</text>
</g>
<!-- GKMG&#45;&#45;GopiKrishnanGanesan -->
<g id="edge15" class="edge">
<title>GKMG&#45;&#45;GopiKrishnanGanesan</title>
<path fill="none" stroke="blue" d="M828.3,-78.49C842.52,-66.91 864.08,-49.36 880.1,-36.32"/>
</g>
<!-- NaveenGanesan -->
<g id="node19" class="node">
<title>NaveenGanesan</title>
<polygon fill="none" stroke="blue" points="793.38,-36 657.38,-36 657.38,0 793.38,0 793.38,-36"/>
<text xml:space="preserve" text-anchor="middle" x="725.38" y="-3.95" font-family="Times,serif" font-size="14.00">Naveen Ganesan</text>
</g>
<!-- GKMG&#45;&#45;NaveenGanesan -->
<g id="edge16" class="edge">
<title>GKMG&#45;&#45;NaveenGanesan</title>
<path fill="none" stroke="blue" d="M798.45,-78.49C784.23,-66.91 762.67,-49.36 746.65,-36.32"/>
</g>
<!-- JothiRamaraj -->
<g id="node16" class="node">
<title>JothiRamaraj</title>
<polygon fill="none" stroke="red" points="826.12,-184.92 712.62,-184.92 712.62,-148.92 826.12,-148.92 826.12,-184.92"/>
<text xml:space="preserve" text-anchor="middle" x="769.38" y="-152.87" font-family="Times,serif" font-size="14.00">Jothi Ramaraj</text>
</g>
<!-- RajKumarRamaraj -->
<g id="node17" class="node">
<title>RajKumarRamaraj</title>
<polygon fill="none" stroke="red" points="996.25,-184.92 844.5,-184.92 844.5,-148.92 996.25,-148.92 996.25,-184.92"/>
<text xml:space="preserve" text-anchor="middle" x="920.38" y="-152.87" font-family="Times,serif" font-size="14.00">RajKumar Ramaraj</text>
</g>
</g>
</svg>
