<?xml version="1.0" encoding="UTF-8" standalone="no"?>
<!DOCTYPE svg PUBLIC "-//W3C//DTD SVG 1.1//EN"
 "http://www.w3.org/Graphics/SVG/1.1/DTD/svg11.dtd">
<!-- Generated by graphviz version 14.0.0 (0)
 -->
<!-- Title: G Pages: 1 -->
<svg width="947pt" height="862pt"
 viewBox="0.00 0.00 947.00 862.00" xmlns="http://www.w3.org/2000/svg" xmlns:xlink="http://www.w3.org/1999/xlink">
<g id="graph0" class="graph" transform="scale(1 1) rotate(0) translate(4 858.33)">
<title>G</title>
<polygon fill="white" stroke="none" points="-4,4 -4,-858.33 942.65,-858.33 942.65,4 -4,4"/>
<!-- P01 -->
<g id="node1" class="node">
<title>P01</title>
<g id="a_node1"><a xlink:href="https://www.google.com" xlink:title="Ganesan Kamatchi">
<polygon fill="none" stroke="blue" points="572.97,-445.16 423.47,-445.16 423.47,-409.16 572.97,-409.16 572.97,-445.16"/>
<text xml:space="preserve" text-anchor="middle" x="498.22" y="-422.49" font-family="Times,serif" font-size="14.00">Ganesan Kamatchi</text>
</a>
</g>
</g>
<!-- P02 -->
<g id="node2" class="node">
<title>P02</title>
<polygon fill="none" stroke="blue" points="938.65,-698.04 753.9,-698.04 753.9,-662.04 938.65,-662.04 938.65,-698.04"/>
<text xml:space="preserve" text-anchor="middle" x="846.28" y="-675.37" font-family="Times,serif" font-size="14.00">Muthulakshmi Ganesan</text>
</g>
<!-- P01&#45;&#45;P02 -->
<g id="edge1" class="edge">
<title>P01&#45;&#45;P02</title>
<path fill="none" stroke="black" d="M523.53,-445.55C587.83,-492.27 756.87,-615.08 821.06,-661.72"/>
<text xml:space="preserve" text-anchor="middle" x="657.3" y="-557.59" font-family="Times,serif" font-size="14.00">wife</text>
</g>
<!-- P03 -->
<g id="node3" class="node">
<title>P03</title>
<polygon fill="none" stroke="blue" points="455.02,-854.33 275.52,-854.33 275.52,-818.33 455.02,-818.33 455.02,-854.33"/>
<text xml:space="preserve" text-anchor="middle" x="365.27" y="-831.65" font-family="Times,serif" font-size="14.00">GopiKrishnan Ganesan</text>
</g>
<!-- P01&#45;&#45;P03 -->
<g id="edge2" class="edge">
<title>P01&#45;&#45;P03</title>
<path fill="none" stroke="black" d="M492.25,-445.54C470.17,-513.49 393.28,-750.13 371.23,-818"/>
<text xml:space="preserve" text-anchor="middle" x="419.36" y="-635.72" font-family="Times,serif" font-size="14.00">son</text>
</g>
<!-- P04 -->
<g id="node4" class="node">
<title>P04</title>
<polygon fill="none" stroke="blue" points="136,-445.16 0,-445.16 0,-409.16 136,-409.16 136,-445.16"/>
<text xml:space="preserve" text-anchor="middle" x="68" y="-422.49" font-family="Times,serif" font-size="14.00">Naveen Ganesan</text>
</g>
<!-- P01&#45;&#45;P04 -->
<g id="edge3" class="edge">
<title>P01&#45;&#45;P04</title>
<path fill="none" stroke="black" d="M423.28,-427.16C342.39,-427.16 214.66,-427.16 136.41,-427.16"/>
<text xml:space="preserve" text-anchor="middle" x="267.47" y="-431.11" font-family="Times,serif" font-size="14.00">son</text>
</g>
<!-- P05 -->
<g id="node5" class="node">
<title>P05</title>
<polygon fill="none" stroke="blue" points="427.65,-36 302.9,-36 302.9,0 427.65,0 427.65,-36"/>
<text xml:space="preserve" text-anchor="middle" x="365.27" y="-13.32" font-family="Times,serif" font-size="14.00">Kamatchi Asari</text>
</g>
<!-- P01&#45;&#45;P05 -->
<g id="edge4" class="edge">
<title>P01&#45;&#45;P05</title>
<path fill="none" stroke="black" d="M492.25,-408.79C470.17,-340.83 393.28,-104.19 371.23,-36.33"/>
<text xml:space="preserve" text-anchor="middle" x="409.99" y="-226.51" font-family="Times,serif" font-size="14.00">father</text>
</g>
<!-- P06 -->
<g id="node6" class="node">
<title>P06</title>
<polygon fill="none" stroke="blue" points="921.03,-192.29 771.53,-192.29 771.53,-156.29 921.03,-156.29 921.03,-192.29"/>
<text xml:space="preserve" text-anchor="middle" x="846.28" y="-169.61" font-family="Times,serif" font-size="14.00">Natchi Muthamma</text>
</g>
<!-- P01&#45;&#45;P06 -->
<g id="edge5" class="edge">
<title>P01&#45;&#45;P06</title>
<path fill="none" stroke="black" d="M523.53,-408.77C587.83,-362.06 756.87,-239.24 821.06,-192.61"/>
<text xml:space="preserve" text-anchor="middle" x="646.42" y="-304.64" font-family="Times,serif" font-size="14.00">mother</text>
</g>
</g>
</svg>
