<?xml version="1.0" encoding="UTF-8" standalone="no"?>
<!DOCTYPE svg PUBLIC "-//W3C//DTD SVG 1.1//EN"
 "http://www.w3.org/Graphics/SVG/1.1/DTD/svg11.dtd">
<!-- Generated by graphviz version 14.0.0 (0)
 -->
<!-- Title: G Pages: 1 -->
<svg width="156pt" height="132pt"
 viewBox="0.00 0.00 156.00 132.00" xmlns="http://www.w3.org/2000/svg" xmlns:xlink="http://www.w3.org/1999/xlink">
<g id="graph0" class="graph" transform="scale(1 1) rotate(0) translate(4 128.01)">
<title>G</title>
<polygon fill="white" stroke="none" points="-4,4 -4,-128.01 152,-128.01 152,4 -4,4"/>
<!-- P007 -->
<g id="node1" class="node">
<title>P007</title>
<g id="a_node1"><a xlink:href="#P007" xlink:title="Subbammal">
<polygon fill="none" stroke="blue" points="124.38,-80 23.63,-80 23.63,-44 124.38,-44 124.38,-80"/>
<text xml:space="preserve" text-anchor="middle" x="74" y="-57.33" font-family="Times,serif" font-size="14.00">Subbammal</text>
</a>
</g>
</g>
<!-- P005 -->
<g id="node2" class="node">
<title>P005</title>
<g id="a_node2"><a xlink:href="#P005" xlink:title="Kamatchi Asari">
<polygon fill="none" stroke="blue" points="136.38,-124.01 11.63,-124.01 11.63,-88.01 136.38,-88.01 136.38,-124.01"/>
<text xml:space="preserve" text-anchor="middle" x="74" y="-101.33" font-family="Times,serif" font-size="14.00">Kamatchi Asari</text>
</a>
</g>
</g>
<!-- P007&#45;&#45;P005 -->
<g id="edge1" class="edge">
<title>P007&#45;&#45;P005</title>
<path fill="none" stroke="black" d="M74,-80.41C74,-82.77 74,-85.18 74,-87.53"/>
<text xml:space="preserve" text-anchor="middle" x="43.63" y="-70.67" font-family="Times,serif" font-size="14.00">husband</text>
</g>
<!-- P008 -->
<g id="node3" class="node">
<title>P008</title>
<g id="a_node3"><a xlink:href="#P008" xlink:title="Ramaraj Kamatchi">
<polygon fill="none" stroke="blue" points="148,-36 0,-36 0,0 148,0 148,-36"/>
<text xml:space="preserve" text-anchor="middle" x="74" y="-13.32" font-family="Times,serif" font-size="14.00">Ramaraj Kamatchi</text>
</a>
</g>
</g>
<!-- P007&#45;&#45;P008 -->
<g id="edge2" class="edge">
<title>P007&#45;&#45;P008</title>
<path fill="none" stroke="black" d="M74,-43.6C74,-41.24 74,-38.83 74,-36.47"/>
<text xml:space="preserve" text-anchor="middle" x="74" y="-26.74" font-family="Times,serif" font-size="14.00">son</text>
</g>
</g>
</svg>
