<?xml version="1.0" encoding="UTF-8" standalone="no"?>
<!DOCTYPE svg PUBLIC "-//W3C//DTD SVG 1.1//EN"
 "http://www.w3.org/Graphics/SVG/1.1/DTD/svg11.dtd">
<!-- Generated by graphviz version 14.0.0 (0)
 -->
<!-- Title: G Pages: 1 -->
<svg width="899pt" height="905pt"
 viewBox="0.00 0.00 899.00 905.00" xmlns="http://www.w3.org/2000/svg" xmlns:xlink="http://www.w3.org/1999/xlink">
<g id="graph0" class="graph" transform="scale(1 1) rotate(0) translate(4 900.53)">
<title>G</title>
<polygon fill="white" stroke="none" points="-4,4 -4,-900.53 894.61,-900.53 894.61,4 -4,4"/>
<!-- P009 -->
<g id="node1" class="node">
<title>P009</title>
<g id="a_node1"><a xlink:href="#P009" xlink:title="Jayalakshmi Ramaraj">
<polygon fill="none" stroke="blue" points="525.12,-466.26 359.12,-466.26 359.12,-430.26 525.12,-430.26 525.12,-466.26"/>
<text xml:space="preserve" text-anchor="middle" x="442.12" y="-443.59" font-family="Times,serif" font-size="14.00">Jayalakshmi Ramaraj</text>
</a>
</g>
</g>
<!-- P008 -->
<g id="node2" class="node">
<title>P008</title>
<g id="a_node2"><a xlink:href="#P008" xlink:title="Ramaraj Kamatchi">
<polygon fill="none" stroke="blue" points="888.74,-681.39 740.74,-681.39 740.74,-645.39 888.74,-645.39 888.74,-681.39"/>
<text xml:space="preserve" text-anchor="middle" x="814.74" y="-658.72" font-family="Times,serif" font-size="14.00">Ramaraj Kamatchi</text>
</a>
</g>
</g>
<!-- P009&#45;&#45;P008 -->
<g id="edge1" class="edge">
<title>P009&#45;&#45;P008</title>
<path fill="none" stroke="black" d="M473.89,-466.61C544.2,-507.2 712.3,-604.25 782.78,-644.95"/>
<text xml:space="preserve" text-anchor="middle" x="597.96" y="-559.73" font-family="Times,serif" font-size="14.00">husband</text>
</g>
<!-- P005 -->
<g id="node3" class="node">
<title>P005</title>
<g id="a_node3"><a xlink:href="#P005" xlink:title="Kamatchi Asari">
<polygon fill="none" stroke="blue" points="504.49,-896.53 379.74,-896.53 379.74,-860.53 504.49,-860.53 504.49,-896.53"/>
<text xml:space="preserve" text-anchor="middle" x="442.12" y="-873.85" font-family="Times,serif" font-size="14.00">Kamatchi Asari</text>
</a>
</g>
</g>
<!-- P009&#45;&#45;P005 -->
<g id="edge2" class="edge">
<title>P009&#45;&#45;P005</title>
<path fill="none" stroke="black" d="M442.12,-466.75C442.12,-537.36 442.12,-789.61 442.12,-860.11"/>
<text xml:space="preserve" text-anchor="middle" x="396.74" y="-667.38" font-family="Times,serif" font-size="14.00">father&#45;in&#45;law</text>
</g>
<!-- P007 -->
<g id="node4" class="node">
<title>P007</title>
<g id="a_node4"><a xlink:href="#P007" xlink:title="Subbammal">
<polygon fill="none" stroke="blue" points="119.88,-681.39 19.13,-681.39 19.13,-645.39 119.88,-645.39 119.88,-681.39"/>
<text xml:space="preserve" text-anchor="middle" x="69.5" y="-658.72" font-family="Times,serif" font-size="14.00">Subbammal</text>
</a>
</g>
</g>
<!-- P009&#45;&#45;P007 -->
<g id="edge3" class="edge">
<title>P009&#45;&#45;P007</title>
<path fill="none" stroke="black" d="M410.35,-466.61C340.04,-507.2 171.93,-604.25 101.45,-644.95"/>
<text xml:space="preserve" text-anchor="middle" x="206.4" y="-559.73" font-family="Times,serif" font-size="14.00">mother&#45;in&#45;law</text>
</g>
<!-- P010 -->
<g id="node5" class="node">
<title>P010</title>
<g id="a_node5"><a xlink:href="#P010" xlink:title="Latha Narayanan">
<polygon fill="none" stroke="blue" points="139,-251.13 0,-251.13 0,-215.13 139,-215.13 139,-251.13"/>
<text xml:space="preserve" text-anchor="middle" x="69.5" y="-228.46" font-family="Times,serif" font-size="14.00">Latha Narayanan</text>
</a>
</g>
</g>
<!-- P009&#45;&#45;P010 -->
<g id="edge4" class="edge">
<title>P009&#45;&#45;P010</title>
<path fill="none" stroke="black" d="M410.35,-429.92C340.04,-389.33 171.93,-292.27 101.45,-251.58"/>
<text xml:space="preserve" text-anchor="middle" x="223.28" y="-344.7" font-family="Times,serif" font-size="14.00">daughter</text>
</g>
<!-- P011 -->
<g id="node6" class="node">
<title>P011</title>
<g id="a_node6"><a xlink:href="#P011" xlink:title="JothiLakshmi Ramaraj">
<polygon fill="none" stroke="blue" points="528.87,-36 355.37,-36 355.37,0 528.87,0 528.87,-36"/>
<text xml:space="preserve" text-anchor="middle" x="442.12" y="-13.32" font-family="Times,serif" font-size="14.00">JothiLakshmi Ramaraj</text>
</a>
</g>
</g>
<!-- P009&#45;&#45;P011 -->
<g id="edge5" class="edge">
<title>P009&#45;&#45;P011</title>
<path fill="none" stroke="black" d="M442.12,-429.78C442.12,-359.16 442.12,-106.91 442.12,-36.42"/>
<text xml:space="preserve" text-anchor="middle" x="409.49" y="-237.05" font-family="Times,serif" font-size="14.00">daughter</text>
</g>
<!-- P012 -->
<g id="node7" class="node">
<title>P012</title>
<g id="a_node7"><a xlink:href="#P012" xlink:title="RajKumar Ramaraj">
<polygon fill="none" stroke="blue" points="890.61,-251.13 738.86,-251.13 738.86,-215.13 890.61,-215.13 890.61,-251.13"/>
<text xml:space="preserve" text-anchor="middle" x="814.74" y="-228.46" font-family="Times,serif" font-size="14.00">RajKumar Ramaraj</text>
</a>
</g>
</g>
<!-- P009&#45;&#45;P012 -->
<g id="edge6" class="edge">
<title>P009&#45;&#45;P012</title>
<path fill="none" stroke="black" d="M473.89,-429.92C544.2,-389.33 712.3,-292.27 782.78,-251.58"/>
<text xml:space="preserve" text-anchor="middle" x="615.96" y="-344.7" font-family="Times,serif" font-size="14.00">son</text>
</g>
</g>
</svg>
