<?xml version="1.0" encoding="UTF-8" standalone="no"?>
<!DOCTYPE svg PUBLIC "-//W3C//DTD SVG 1.1//EN"
 "http://www.w3.org/Graphics/SVG/1.1/DTD/svg11.dtd">
<!-- Generated by graphviz version 14.0.0 (0)
 -->
<!-- Title: G Pages: 1 -->
<svg width="914pt" height="905pt"
 viewBox="0.00 0.00 914.00 905.00" xmlns="http://www.w3.org/2000/svg" xmlns:xlink="http://www.w3.org/1999/xlink">
<g id="graph0" class="graph" transform="scale(1 1) rotate(0) translate(4 900.53)">
<title>G</title>
<polygon fill="white" stroke="none" points="-4,4 -4,-900.53 909.99,-900.53 909.99,4 -4,4"/>
<!-- P012 -->
<g id="node1" class="node">
<title>P012</title>
<g id="a_node1"><a xlink:href="#P012" xlink:title="RajKumar Ramaraj">
<polygon fill="none" stroke="blue" points="535.24,-466.26 383.49,-466.26 383.49,-430.26 535.24,-430.26 535.24,-466.26"/>
<text xml:space="preserve" text-anchor="middle" x="459.37" y="-443.59" font-family="Times,serif" font-size="14.00">RajKumar Ramaraj</text>
</a>
</g>
</g>
<!-- P008 -->
<g id="node2" class="node">
<title>P008</title>
<g id="a_node2"><a xlink:href="#P008" xlink:title="Ramaraj Kamatchi">
<polygon fill="none" stroke="blue" points="905.99,-681.39 757.99,-681.39 757.99,-645.39 905.99,-645.39 905.99,-681.39"/>
<text xml:space="preserve" text-anchor="middle" x="831.99" y="-658.72" font-family="Times,serif" font-size="14.00">Ramaraj Kamatchi</text>
</a>
</g>
</g>
<!-- P012&#45;&#45;P008 -->
<g id="edge1" class="edge">
<title>P012&#45;&#45;P008</title>
<path fill="none" stroke="black" d="M491.14,-466.61C561.45,-507.2 729.55,-604.25 800.03,-644.95"/>
<text xml:space="preserve" text-anchor="middle" x="623.84" y="-559.73" font-family="Times,serif" font-size="14.00">father</text>
</g>
<!-- P009 -->
<g id="node3" class="node">
<title>P009</title>
<g id="a_node3"><a xlink:href="#P009" xlink:title="Jayalakshmi Ramaraj">
<polygon fill="none" stroke="blue" points="542.37,-896.53 376.37,-896.53 376.37,-860.53 542.37,-860.53 542.37,-896.53"/>
<text xml:space="preserve" text-anchor="middle" x="459.37" y="-873.85" font-family="Times,serif" font-size="14.00">Jayalakshmi Ramaraj</text>
</a>
</g>
</g>
<!-- P012&#45;&#45;P009 -->
<g id="edge2" class="edge">
<title>P012&#45;&#45;P009</title>
<path fill="none" stroke="black" d="M459.37,-466.75C459.37,-537.36 459.37,-789.61 459.37,-860.11"/>
<text xml:space="preserve" text-anchor="middle" x="433.49" y="-667.38" font-family="Times,serif" font-size="14.00">mother</text>
</g>
<!-- P011 -->
<g id="node4" class="node">
<title>P011</title>
<g id="a_node4"><a xlink:href="#P011" xlink:title="JothiLakshmi Ramaraj">
<polygon fill="none" stroke="blue" points="173.5,-681.39 0,-681.39 0,-645.39 173.5,-645.39 173.5,-681.39"/>
<text xml:space="preserve" text-anchor="middle" x="86.75" y="-658.72" font-family="Times,serif" font-size="14.00">JothiLakshmi Ramaraj</text>
</a>
</g>
</g>
<!-- P012&#45;&#45;P011 -->
<g id="edge3" class="edge">
<title>P012&#45;&#45;P011</title>
<path fill="none" stroke="black" d="M427.6,-466.61C357.29,-507.2 189.18,-604.25 118.7,-644.95"/>
<text xml:space="preserve" text-anchor="middle" x="252.9" y="-559.73" font-family="Times,serif" font-size="14.00">sister</text>
</g>
<!-- P010 -->
<g id="node5" class="node">
<title>P010</title>
<g id="a_node5"><a xlink:href="#P010" xlink:title="Latha Narayanan">
<polygon fill="none" stroke="blue" points="156.25,-251.13 17.25,-251.13 17.25,-215.13 156.25,-215.13 156.25,-251.13"/>
<text xml:space="preserve" text-anchor="middle" x="86.75" y="-228.46" font-family="Times,serif" font-size="14.00">Latha Narayanan</text>
</a>
</g>
</g>
<!-- P012&#45;&#45;P010 -->
<g id="edge4" class="edge">
<title>P012&#45;&#45;P010</title>
<path fill="none" stroke="black" d="M427.6,-429.92C357.29,-389.33 189.18,-292.27 118.7,-251.58"/>
<text xml:space="preserve" text-anchor="middle" x="252.9" y="-344.7" font-family="Times,serif" font-size="14.00">sister</text>
</g>
<!-- P005 -->
<g id="node6" class="node">
<title>P005</title>
<g id="a_node6"><a xlink:href="#P005" xlink:title="Kamatchi Asari">
<polygon fill="none" stroke="blue" points="521.74,-36 396.99,-36 396.99,0 521.74,0 521.74,-36"/>
<text xml:space="preserve" text-anchor="middle" x="459.37" y="-13.32" font-family="Times,serif" font-size="14.00">Kamatchi Asari</text>
</a>
</g>
</g>
<!-- P012&#45;&#45;P005 -->
<g id="edge5" class="edge">
<title>P012&#45;&#45;P005</title>
<path fill="none" stroke="black" d="M459.37,-429.78C459.37,-359.16 459.37,-106.91 459.37,-36.42"/>
<text xml:space="preserve" text-anchor="middle" x="384.37" y="-237.05" font-family="Times,serif" font-size="14.00">paternal grandfather</text>
</g>
<!-- P007 -->
<g id="node7" class="node">
<title>P007</title>
<g id="a_node7"><a xlink:href="#P007" xlink:title="Subbammal">
<polygon fill="none" stroke="blue" points="882.36,-251.13 781.61,-251.13 781.61,-215.13 882.36,-215.13 882.36,-251.13"/>
<text xml:space="preserve" text-anchor="middle" x="831.99" y="-228.46" font-family="Times,serif" font-size="14.00">Subbammal</text>
</a>
</g>
</g>
<!-- P012&#45;&#45;P007 -->
<g id="edge6" class="edge">
<title>P012&#45;&#45;P007</title>
<path fill="none" stroke="black" d="M491.14,-429.92C561.45,-389.33 729.55,-292.27 800.03,-251.58"/>
<text xml:space="preserve" text-anchor="middle" x="566.46" y="-344.7" font-family="Times,serif" font-size="14.00">paternal grandmother</text>
</g>
</g>
</svg>
