<?xml version="1.0" encoding="UTF-8" standalone="no"?>
<!DOCTYPE svg PUBLIC "-//W3C//DTD SVG 1.1//EN"
 "http://www.w3.org/Graphics/SVG/1.1/DTD/svg11.dtd">
<!-- Generated by graphviz version 14.0.0 (0)
 -->
<!-- Title: G Pages: 1 -->
<svg width="970pt" height="901pt"
 viewBox="0.00 0.00 970.00 901.00" xmlns="http://www.w3.org/2000/svg" xmlns:xlink="http://www.w3.org/1999/xlink">
<g id="graph0" class="graph" transform="scale(1 1) rotate(0) translate(4 896.55)">
<title>G</title>
<polygon fill="white" stroke="none" points="-4,4 -4,-896.55 966.25,-896.55 966.25,4 -4,4"/>
<!-- P005 -->
<g id="node1" class="node">
<title>P005</title>
<g id="a_node1"><a xlink:href="#P005" xlink:title="Kamatchi Asari">
<polygon fill="none" stroke="blue" points="541.44,-464.28 416.69,-464.28 416.69,-428.28 541.44,-428.28 541.44,-464.28"/>
<text xml:space="preserve" text-anchor="middle" x="479.06" y="-441.6" font-family="Times,serif" font-size="14.00">Kamatchi Asari</text>
</a>
</g>
</g>
<!-- P001 -->
<g id="node2" class="node">
<title>P001</title>
<g id="a_node2"><a xlink:href="#P001" xlink:title="Ganesan Kamatchi">
<polygon fill="none" stroke="blue" points="961.13,-596.62 811.63,-596.62 811.63,-560.62 961.13,-560.62 961.13,-596.62"/>
<text xml:space="preserve" text-anchor="middle" x="886.38" y="-573.95" font-family="Times,serif" font-size="14.00">Ganesan Kamatchi</text>
</a>
</g>
</g>
<!-- P005&#45;&#45;P001 -->
<g id="edge1" class="edge">
<title>P005&#45;&#45;P001</title>
<path fill="none" stroke="black" d="M535.7,-464.68C613.3,-489.89 751.88,-534.92 829.57,-560.16"/>
<text xml:space="preserve" text-anchor="middle" x="670.26" y="-516.37" font-family="Times,serif" font-size="14.00">son</text>
</g>
<!-- P002 -->
<g id="node3" class="node">
<title>P002</title>
<g id="a_node3"><a xlink:href="#P002" xlink:title="Muthulakshmi Ganesan">
<polygon fill="none" stroke="blue" points="823.17,-810.76 638.42,-810.76 638.42,-774.76 823.17,-774.76 823.17,-810.76"/>
<text xml:space="preserve" text-anchor="middle" x="730.8" y="-788.08" font-family="Times,serif" font-size="14.00">Muthulakshmi Ganesan</text>
</a>
</g>
</g>
<!-- P005&#45;&#45;P002 -->
<g id="edge2" class="edge">
<title>P005&#45;&#45;P002</title>
<path fill="none" stroke="black" d="M492.24,-464.42C535.64,-524.15 673.8,-714.3 717.45,-774.38"/>
<text xml:space="preserve" text-anchor="middle" x="548.6" y="-623.35" font-family="Times,serif" font-size="14.00">daughter&#45;in&#45;law</text>
</g>
<!-- P003 -->
<g id="node4" class="node">
<title>P003</title>
<g id="a_node4"><a xlink:href="#P003" xlink:title="GopiKrishnan Ganesan">
<polygon fill="none" stroke="blue" points="568.81,-892.55 389.31,-892.55 389.31,-856.55 568.81,-856.55 568.81,-892.55"/>
<text xml:space="preserve" text-anchor="middle" x="479.06" y="-869.88" font-family="Times,serif" font-size="14.00">GopiKrishnan Ganesan</text>
</a>
</g>
</g>
<!-- P005&#45;&#45;P003 -->
<g id="edge3" class="edge">
<title>P005&#45;&#45;P003</title>
<path fill="none" stroke="black" d="M479.06,-464.68C479.06,-534.97 479.06,-786.05 479.06,-856.22"/>
<text xml:space="preserve" text-anchor="middle" x="413.44" y="-664.4" font-family="Times,serif" font-size="14.00">paternal grandson</text>
</g>
<!-- P004 -->
<g id="node5" class="node">
<title>P004</title>
<g id="a_node5"><a xlink:href="#P004" xlink:title="Naveen Ganesan">
<polygon fill="none" stroke="blue" points="295.33,-810.76 159.33,-810.76 159.33,-774.76 295.33,-774.76 295.33,-810.76"/>
<text xml:space="preserve" text-anchor="middle" x="227.33" y="-788.08" font-family="Times,serif" font-size="14.00">Naveen Ganesan</text>
</a>
</g>
</g>
<!-- P005&#45;&#45;P004 -->
<g id="edge4" class="edge">
<title>P005&#45;&#45;P004</title>
<path fill="none" stroke="black" d="M465.89,-464.42C422.49,-524.15 284.33,-714.3 240.68,-774.38"/>
<text xml:space="preserve" text-anchor="middle" x="287.66" y="-623.35" font-family="Times,serif" font-size="14.00">paternal grandson</text>
</g>
<!-- P006 -->
<g id="node6" class="node">
<title>P006</title>
<g id="a_node6"><a xlink:href="#P006" xlink:title="Nachi Muthamma">
<polygon fill="none" stroke="blue" points="143.5,-596.62 0,-596.62 0,-560.62 143.5,-560.62 143.5,-596.62"/>
<text xml:space="preserve" text-anchor="middle" x="71.75" y="-573.95" font-family="Times,serif" font-size="14.00">Nachi Muthamma</text>
</a>
</g>
</g>
<!-- P005&#45;&#45;P006 -->
<g id="edge5" class="edge">
<title>P005&#45;&#45;P006</title>
<path fill="none" stroke="black" d="M422.43,-464.68C344.83,-489.89 206.25,-534.92 128.56,-560.16"/>
<text xml:space="preserve" text-anchor="middle" x="260.49" y="-516.37" font-family="Times,serif" font-size="14.00">wife</text>
</g>
<!-- P007 -->
<g id="node7" class="node">
<title>P007</title>
<g id="a_node7"><a xlink:href="#P007" xlink:title="Subbammal">
<polygon fill="none" stroke="blue" points="122.12,-331.93 21.37,-331.93 21.37,-295.93 122.12,-295.93 122.12,-331.93"/>
<text xml:space="preserve" text-anchor="middle" x="71.75" y="-309.26" font-family="Times,serif" font-size="14.00">Subbammal</text>
</a>
</g>
</g>
<!-- P005&#45;&#45;P007 -->
<g id="edge6" class="edge">
<title>P005&#45;&#45;P007</title>
<path fill="none" stroke="black" d="M422.43,-427.87C342.75,-401.99 198.79,-355.21 122.46,-330.41"/>
<text xml:space="preserve" text-anchor="middle" x="257.44" y="-383.09" font-family="Times,serif" font-size="14.00">wife</text>
</g>
<!-- P008 -->
<g id="node8" class="node">
<title>P008</title>
<g id="a_node8"><a xlink:href="#P008" xlink:title="Ramaraj Kamatchi">
<polygon fill="none" stroke="blue" points="301.33,-117.79 153.33,-117.79 153.33,-81.79 301.33,-81.79 301.33,-117.79"/>
<text xml:space="preserve" text-anchor="middle" x="227.33" y="-95.12" font-family="Times,serif" font-size="14.00">Ramaraj Kamatchi</text>
</a>
</g>
</g>
<!-- P005&#45;&#45;P008 -->
<g id="edge7" class="edge">
<title>P005&#45;&#45;P008</title>
<path fill="none" stroke="black" d="M465.89,-428.14C422.49,-368.4 284.33,-178.25 240.68,-118.17"/>
<text xml:space="preserve" text-anchor="middle" x="340.91" y="-277.1" font-family="Times,serif" font-size="14.00">son</text>
</g>
<!-- P010 -->
<g id="node9" class="node">
<title>P010</title>
<g id="a_node9"><a xlink:href="#P010" xlink:title="Latha Narayanan">
<polygon fill="none" stroke="blue" points="548.56,-36 409.56,-36 409.56,0 548.56,0 548.56,-36"/>
<text xml:space="preserve" text-anchor="middle" x="479.06" y="-13.32" font-family="Times,serif" font-size="14.00">Latha Narayanan</text>
</a>
</g>
</g>
<!-- P005&#45;&#45;P010 -->
<g id="edge8" class="edge">
<title>P005&#45;&#45;P010</title>
<path fill="none" stroke="black" d="M479.06,-427.87C479.06,-357.59 479.06,-106.5 479.06,-36.33"/>
<text xml:space="preserve" text-anchor="middle" x="393.19" y="-236.05" font-family="Times,serif" font-size="14.00">paternal granddaughter</text>
</g>
<!-- P011 -->
<g id="node10" class="node">
<title>P011</title>
<g id="a_node10"><a xlink:href="#P011" xlink:title="JothiLakshmi Ramaraj">
<polygon fill="none" stroke="blue" points="817.55,-117.79 644.05,-117.79 644.05,-81.79 817.55,-81.79 817.55,-117.79"/>
<text xml:space="preserve" text-anchor="middle" x="730.8" y="-95.12" font-family="Times,serif" font-size="14.00">JothiLakshmi Ramaraj</text>
</a>
</g>
</g>
<!-- P005&#45;&#45;P011 -->
<g id="edge9" class="edge">
<title>P005&#45;&#45;P011</title>
<path fill="none" stroke="black" d="M492.24,-428.14C535.64,-368.4 673.8,-178.25 717.45,-118.17"/>
<text xml:space="preserve" text-anchor="middle" x="518.97" y="-277.1" font-family="Times,serif" font-size="14.00">paternal granddaughter</text>
</g>
<!-- P012 -->
<g id="node11" class="node">
<title>P012</title>
<g id="a_node11"><a xlink:href="#P012" xlink:title="RajKumar Ramaraj">
<polygon fill="none" stroke="blue" points="962.25,-331.93 810.5,-331.93 810.5,-295.93 962.25,-295.93 962.25,-331.93"/>
<text xml:space="preserve" text-anchor="middle" x="886.38" y="-309.26" font-family="Times,serif" font-size="14.00">RajKumar Ramaraj</text>
</a>
</g>
</g>
<!-- P005&#45;&#45;P012 -->
<g id="edge10" class="edge">
<title>P005&#45;&#45;P012</title>
<path fill="none" stroke="black" d="M535.7,-427.87C613.3,-402.66 751.88,-357.63 829.57,-332.39"/>
<text xml:space="preserve" text-anchor="middle" x="617.01" y="-384.08" font-family="Times,serif" font-size="14.00">paternal grandson</text>
</g>
</g>
</svg>
