<?xml version="1.0" encoding="UTF-8" standalone="no"?>
<!DOCTYPE svg PUBLIC "-//W3C//DTD SVG 1.1//EN"
 "http://www.w3.org/Graphics/SVG/1.1/DTD/svg11.dtd">
<!-- Generated by graphviz version 14.0.0 (0)
 -->
<!-- Title: G Pages: 1 -->
<svg width="925pt" height="858pt"
 viewBox="0.00 0.00 925.00 858.00" xmlns="http://www.w3.org/2000/svg" xmlns:xlink="http://www.w3.org/1999/xlink">
<g id="graph0" class="graph" transform="scale(1 1) rotate(0) translate(4 854.35)">
<title>G</title>
<polygon fill="white" stroke="none" points="-4,4 -4,-854.35 921.25,-854.35 921.25,4 -4,4"/>
<!-- P002 -->
<g id="node1" class="node">
<title>P002</title>
<g id="a_node1"><a xlink:href="#P002" xlink:title="Muthulakshmi Ganesan">
<polygon fill="none" stroke="blue" points="588.51,-443.18 403.76,-443.18 403.76,-407.18 588.51,-407.18 588.51,-443.18"/>
<text xml:space="preserve" text-anchor="middle" x="496.13" y="-420.5" font-family="Times,serif" font-size="14.00">Muthulakshmi Ganesan</text>
</a>
</g>
</g>
<!-- P001 -->
<g id="node2" class="node">
<title>P001</title>
<g id="a_node2"><a xlink:href="#P001" xlink:title="Ganesan Kamatchi">
<polygon fill="none" stroke="blue" points="917.25,-694.83 767.75,-694.83 767.75,-658.83 917.25,-658.83 917.25,-694.83"/>
<text xml:space="preserve" text-anchor="middle" x="842.5" y="-672.15" font-family="Times,serif" font-size="14.00">Ganesan Kamatchi</text>
</a>
</g>
</g>
<!-- P002&#45;&#45;P001 -->
<g id="edge1" class="edge">
<title>P002&#45;&#45;P001</title>
<path fill="none" stroke="black" d="M521.32,-443.48C585.3,-489.96 753.52,-612.18 817.4,-658.59"/>
<text xml:space="preserve" text-anchor="middle" x="638.99" y="-554.99" font-family="Times,serif" font-size="14.00">husband</text>
</g>
<!-- P003 -->
<g id="node3" class="node">
<title>P003</title>
<g id="a_node3"><a xlink:href="#P003" xlink:title="GopiKrishnan Ganesan">
<polygon fill="none" stroke="blue" points="453.58,-850.35 274.08,-850.35 274.08,-814.35 453.58,-814.35 453.58,-850.35"/>
<text xml:space="preserve" text-anchor="middle" x="363.83" y="-827.68" font-family="Times,serif" font-size="14.00">GopiKrishnan Ganesan</text>
</a>
</g>
</g>
<!-- P002&#45;&#45;P003 -->
<g id="edge2" class="edge">
<title>P002&#45;&#45;P003</title>
<path fill="none" stroke="black" d="M490.19,-443.46C468.22,-511.09 391.7,-746.58 369.76,-814.12"/>
<text xml:space="preserve" text-anchor="middle" x="417.6" y="-632.74" font-family="Times,serif" font-size="14.00">son</text>
</g>
<!-- P004 -->
<g id="node4" class="node">
<title>P004</title>
<g id="a_node4"><a xlink:href="#P004" xlink:title="Naveen Ganesan">
<polygon fill="none" stroke="blue" points="136,-443.18 0,-443.18 0,-407.18 136,-407.18 136,-443.18"/>
<text xml:space="preserve" text-anchor="middle" x="68" y="-420.5" font-family="Times,serif" font-size="14.00">Naveen Ganesan</text>
</a>
</g>
</g>
<!-- P002&#45;&#45;P004 -->
<g id="edge3" class="edge">
<title>P002&#45;&#45;P004</title>
<path fill="none" stroke="black" d="M403.5,-425.18C323.1,-425.18 208.54,-425.18 136.26,-425.18"/>
<text xml:space="preserve" text-anchor="middle" x="257.5" y="-429.13" font-family="Times,serif" font-size="14.00">son</text>
</g>
<!-- P005 -->
<g id="node5" class="node">
<title>P005</title>
<g id="a_node5"><a xlink:href="#P005" xlink:title="Kamatchi Asari">
<polygon fill="none" stroke="blue" points="426.21,-36 301.46,-36 301.46,0 426.21,0 426.21,-36"/>
<text xml:space="preserve" text-anchor="middle" x="363.83" y="-13.32" font-family="Times,serif" font-size="14.00">Kamatchi Asari</text>
</a>
</g>
</g>
<!-- P002&#45;&#45;P005 -->
<g id="edge4" class="edge">
<title>P002&#45;&#45;P005</title>
<path fill="none" stroke="black" d="M490.19,-406.89C468.22,-339.27 391.7,-103.78 369.76,-36.24"/>
<text xml:space="preserve" text-anchor="middle" x="384.6" y="-225.51" font-family="Times,serif" font-size="14.00">father&#45;in&#45;law</text>
</g>
<!-- P006 -->
<g id="node6" class="node">
<title>P006</title>
<g id="a_node6"><a xlink:href="#P006" xlink:title="Nachi Muthamma">
<polygon fill="none" stroke="blue" points="914.25,-191.53 770.75,-191.53 770.75,-155.53 914.25,-155.53 914.25,-191.53"/>
<text xml:space="preserve" text-anchor="middle" x="842.5" y="-168.85" font-family="Times,serif" font-size="14.00">Nachi Muthamma</text>
</a>
</g>
</g>
<!-- P002&#45;&#45;P006 -->
<g id="edge5" class="edge">
<title>P002&#45;&#45;P006</title>
<path fill="none" stroke="black" d="M521.32,-406.88C585.3,-360.39 753.52,-238.17 817.4,-191.76"/>
<text xml:space="preserve" text-anchor="middle" x="619.86" y="-303.27" font-family="Times,serif" font-size="14.00">mother&#45;in&#45;law</text>
</g>
</g>
</svg>
