<?xml version="1.0" encoding="UTF-8" standalone="no"?>
<!DOCTYPE svg PUBLIC "-//W3C//DTD SVG 1.1//EN"
 "http://www.w3.org/Graphics/SVG/1.1/DTD/svg11.dtd">
<!-- Generated by graphviz version 14.0.0 (0)
 -->
<!-- Title: G Pages: 1 -->
<svg width="912pt" height="905pt"
 viewBox="0.00 0.00 912.00 905.00" xmlns="http://www.w3.org/2000/svg" xmlns:xlink="http://www.w3.org/1999/xlink">
<g id="graph0" class="graph" transform="scale(1 1) rotate(0) translate(4 900.53)">
<title>G</title>
<polygon fill="white" stroke="none" points="-4,4 -4,-900.53 908.11,-900.53 908.11,4 -4,4"/>
<!-- P008 -->
<g id="node1" class="node">
<title>P008</title>
<g id="a_node1"><a xlink:href="#P008" xlink:title="Ramaraj Kamatchi">
<polygon fill="none" stroke="blue" points="529.62,-466.26 381.62,-466.26 381.62,-430.26 529.62,-430.26 529.62,-466.26"/>
<text xml:space="preserve" text-anchor="middle" x="455.62" y="-443.59" font-family="Times,serif" font-size="14.00">Ramaraj Kamatchi</text>
</a>
</g>
</g>
<!-- P005 -->
<g id="node2" class="node">
<title>P005</title>
<g id="a_node2"><a xlink:href="#P005" xlink:title="Kamatchi Asari">
<polygon fill="none" stroke="blue" points="890.61,-681.39 765.86,-681.39 765.86,-645.39 890.61,-645.39 890.61,-681.39"/>
<text xml:space="preserve" text-anchor="middle" x="828.24" y="-658.72" font-family="Times,serif" font-size="14.00">Kamatchi Asari</text>
</a>
</g>
</g>
<!-- P008&#45;&#45;P005 -->
<g id="edge1" class="edge">
<title>P008&#45;&#45;P005</title>
<path fill="none" stroke="black" d="M487.39,-466.61C557.7,-507.2 725.8,-604.25 796.28,-644.95"/>
<text xml:space="preserve" text-anchor="middle" x="620.09" y="-559.73" font-family="Times,serif" font-size="14.00">father</text>
</g>
<!-- P007 -->
<g id="node3" class="node">
<title>P007</title>
<g id="a_node3"><a xlink:href="#P007" xlink:title="Subbammal">
<polygon fill="none" stroke="blue" points="505.99,-896.53 405.24,-896.53 405.24,-860.53 505.99,-860.53 505.99,-896.53"/>
<text xml:space="preserve" text-anchor="middle" x="455.62" y="-873.85" font-family="Times,serif" font-size="14.00">Subbammal</text>
</a>
</g>
</g>
<!-- P008&#45;&#45;P007 -->
<g id="edge2" class="edge">
<title>P008&#45;&#45;P007</title>
<path fill="none" stroke="black" d="M455.62,-466.75C455.62,-537.36 455.62,-789.61 455.62,-860.11"/>
<text xml:space="preserve" text-anchor="middle" x="429.74" y="-667.38" font-family="Times,serif" font-size="14.00">mother</text>
</g>
<!-- P009 -->
<g id="node4" class="node">
<title>P009</title>
<g id="a_node4"><a xlink:href="#P009" xlink:title="Jayalakshmi Ramaraj">
<polygon fill="none" stroke="blue" points="166,-681.39 0,-681.39 0,-645.39 166,-645.39 166,-681.39"/>
<text xml:space="preserve" text-anchor="middle" x="83" y="-658.72" font-family="Times,serif" font-size="14.00">Jayalakshmi Ramaraj</text>
</a>
</g>
</g>
<!-- P008&#45;&#45;P009 -->
<g id="edge3" class="edge">
<title>P008&#45;&#45;P009</title>
<path fill="none" stroke="black" d="M423.85,-466.61C353.54,-507.2 185.43,-604.25 114.95,-644.95"/>
<text xml:space="preserve" text-anchor="middle" x="254.4" y="-559.73" font-family="Times,serif" font-size="14.00">wife</text>
</g>
<!-- P010 -->
<g id="node5" class="node">
<title>P010</title>
<g id="a_node5"><a xlink:href="#P010" xlink:title="Latha Narayanan">
<polygon fill="none" stroke="blue" points="152.5,-251.13 13.5,-251.13 13.5,-215.13 152.5,-215.13 152.5,-251.13"/>
<text xml:space="preserve" text-anchor="middle" x="83" y="-228.46" font-family="Times,serif" font-size="14.00">Latha Narayanan</text>
</a>
</g>
</g>
<!-- P008&#45;&#45;P010 -->
<g id="edge4" class="edge">
<title>P008&#45;&#45;P010</title>
<path fill="none" stroke="black" d="M423.85,-429.92C353.54,-389.33 185.43,-292.27 114.95,-251.58"/>
<text xml:space="preserve" text-anchor="middle" x="236.78" y="-344.7" font-family="Times,serif" font-size="14.00">daughter</text>
</g>
<!-- P011 -->
<g id="node6" class="node">
<title>P011</title>
<g id="a_node6"><a xlink:href="#P011" xlink:title="JothiLakshmi Ramaraj">
<polygon fill="none" stroke="blue" points="542.37,-36 368.87,-36 368.87,0 542.37,0 542.37,-36"/>
<text xml:space="preserve" text-anchor="middle" x="455.62" y="-13.32" font-family="Times,serif" font-size="14.00">JothiLakshmi Ramaraj</text>
</a>
</g>
</g>
<!-- P008&#45;&#45;P011 -->
<g id="edge5" class="edge">
<title>P008&#45;&#45;P011</title>
<path fill="none" stroke="black" d="M455.62,-429.78C455.62,-359.16 455.62,-106.91 455.62,-36.42"/>
<text xml:space="preserve" text-anchor="middle" x="422.99" y="-237.05" font-family="Times,serif" font-size="14.00">daughter</text>
</g>
<!-- P012 -->
<g id="node7" class="node">
<title>P012</title>
<g id="a_node7"><a xlink:href="#P012" xlink:title="RajKumar Ramaraj">
<polygon fill="none" stroke="blue" points="904.11,-251.13 752.36,-251.13 752.36,-215.13 904.11,-215.13 904.11,-251.13"/>
<text xml:space="preserve" text-anchor="middle" x="828.24" y="-228.46" font-family="Times,serif" font-size="14.00">RajKumar Ramaraj</text>
</a>
</g>
</g>
<!-- P008&#45;&#45;P012 -->
<g id="edge6" class="edge">
<title>P008&#45;&#45;P012</title>
<path fill="none" stroke="black" d="M487.39,-429.92C557.7,-389.33 725.8,-292.27 796.28,-251.58"/>
<text xml:space="preserve" text-anchor="middle" x="629.46" y="-344.7" font-family="Times,serif" font-size="14.00">son</text>
</g>
</g>
</svg>
