<?xml version="1.0" encoding="UTF-8" standalone="no"?>
<!DOCTYPE svg PUBLIC "-//W3C//DTD SVG 1.1//EN"
 "http://www.w3.org/Graphics/SVG/1.1/DTD/svg11.dtd">
<!-- Generated by graphviz version 14.0.0 (0)
 -->
<!-- Title: G Pages: 1 -->
<svg width="947pt" height="858pt"
 viewBox="0.00 0.00 947.00 858.00" xmlns="http://www.w3.org/2000/svg" xmlns:xlink="http://www.w3.org/1999/xlink">
<g id="graph0" class="graph" transform="scale(1 1) rotate(0) translate(4 854.35)">
<title>G</title>
<polygon fill="white" stroke="none" points="-4,4 -4,-854.35 943,-854.35 943,4 -4,4"/>
<!-- P004 -->
<g id="node1" class="node">
<title>P004</title>
<g id="a_node1"><a xlink:href="#P004" xlink:title="Naveen Ganesan">
<polygon fill="none" stroke="blue" points="585.88,-443.18 449.88,-443.18 449.88,-407.18 585.88,-407.18 585.88,-443.18"/>
<text xml:space="preserve" text-anchor="middle" x="517.88" y="-420.5" font-family="Times,serif" font-size="14.00">Naveen Ganesan</text>
</a>
</g>
</g>
<!-- P001 -->
<g id="node2" class="node">
<title>P001</title>
<g id="a_node2"><a xlink:href="#P001" xlink:title="Ganesan Kamatchi">
<polygon fill="none" stroke="blue" points="939,-694.83 789.5,-694.83 789.5,-658.83 939,-658.83 939,-694.83"/>
<text xml:space="preserve" text-anchor="middle" x="864.25" y="-672.15" font-family="Times,serif" font-size="14.00">Ganesan Kamatchi</text>
</a>
</g>
</g>
<!-- P004&#45;&#45;P001 -->
<g id="edge1" class="edge">
<title>P004&#45;&#45;P001</title>
<path fill="none" stroke="black" d="M543.07,-443.48C607.05,-489.96 775.27,-612.18 839.15,-658.59"/>
<text xml:space="preserve" text-anchor="middle" x="669.36" y="-554.99" font-family="Times,serif" font-size="14.00">father</text>
</g>
<!-- P002 -->
<g id="node3" class="node">
<title>P002</title>
<g id="a_node3"><a xlink:href="#P002" xlink:title="Muthulakshmi Ganesan">
<polygon fill="none" stroke="blue" points="477.96,-850.35 293.21,-850.35 293.21,-814.35 477.96,-814.35 477.96,-850.35"/>
<text xml:space="preserve" text-anchor="middle" x="385.58" y="-827.68" font-family="Times,serif" font-size="14.00">Muthulakshmi Ganesan</text>
</a>
</g>
</g>
<!-- P004&#45;&#45;P002 -->
<g id="edge2" class="edge">
<title>P004&#45;&#45;P002</title>
<path fill="none" stroke="black" d="M511.94,-443.46C489.97,-511.09 413.45,-746.58 391.51,-814.12"/>
<text xml:space="preserve" text-anchor="middle" x="425.85" y="-632.74" font-family="Times,serif" font-size="14.00">mother</text>
</g>
<!-- P003 -->
<g id="node4" class="node">
<title>P003</title>
<g id="a_node4"><a xlink:href="#P003" xlink:title="GopiKrishnan Ganesan">
<polygon fill="none" stroke="blue" points="179.5,-443.18 0,-443.18 0,-407.18 179.5,-407.18 179.5,-443.18"/>
<text xml:space="preserve" text-anchor="middle" x="89.75" y="-420.5" font-family="Times,serif" font-size="14.00">GopiKrishnan Ganesan</text>
</a>
</g>
</g>
<!-- P004&#45;&#45;P003 -->
<g id="edge3" class="edge">
<title>P004&#45;&#45;P003</title>
<path fill="none" stroke="black" d="M449.57,-425.18C376.5,-425.18 260.29,-425.18 179.79,-425.18"/>
<text xml:space="preserve" text-anchor="middle" x="287.68" y="-429.13" font-family="Times,serif" font-size="14.00">brother</text>
</g>
<!-- P005 -->
<g id="node5" class="node">
<title>P005</title>
<g id="a_node5"><a xlink:href="#P005" xlink:title="Kamatchi Asari">
<polygon fill="none" stroke="blue" points="447.96,-36 323.21,-36 323.21,0 447.96,0 447.96,-36"/>
<text xml:space="preserve" text-anchor="middle" x="385.58" y="-13.32" font-family="Times,serif" font-size="14.00">Kamatchi Asari</text>
</a>
</g>
</g>
<!-- P004&#45;&#45;P005 -->
<g id="edge4" class="edge">
<title>P004&#45;&#45;P005</title>
<path fill="none" stroke="black" d="M511.94,-406.89C489.97,-339.27 413.45,-103.78 391.51,-36.24"/>
<text xml:space="preserve" text-anchor="middle" x="376.72" y="-225.51" font-family="Times,serif" font-size="14.00">paternal grandfather</text>
</g>
<!-- P006 -->
<g id="node6" class="node">
<title>P006</title>
<g id="a_node6"><a xlink:href="#P006" xlink:title="Nachi Muthamma">
<polygon fill="none" stroke="blue" points="936,-191.53 792.5,-191.53 792.5,-155.53 936,-155.53 936,-191.53"/>
<text xml:space="preserve" text-anchor="middle" x="864.25" y="-168.85" font-family="Times,serif" font-size="14.00">Nachi Muthamma</text>
</a>
</g>
</g>
<!-- P004&#45;&#45;P006 -->
<g id="edge5" class="edge">
<title>P004&#45;&#45;P006</title>
<path fill="none" stroke="black" d="M543.07,-406.88C607.05,-360.39 775.27,-238.17 839.15,-191.76"/>
<text xml:space="preserve" text-anchor="middle" x="611.99" y="-303.27" font-family="Times,serif" font-size="14.00">paternal grandmother</text>
</g>
</g>
</svg>
