<?xml version="1.0" encoding="UTF-8" standalone="no"?>
<!DOCTYPE svg PUBLIC "-//W3C//DTD SVG 1.1//EN"
 "http://www.w3.org/Graphics/SVG/1.1/DTD/svg11.dtd">
<!-- Generated by graphviz version 14.0.0 (0)
 -->
<!-- Title: G Pages: 1 -->
<svg width="903pt" height="905pt"
 viewBox="0.00 0.00 903.00 905.00" xmlns="http://www.w3.org/2000/svg" xmlns:xlink="http://www.w3.org/1999/xlink">
<g id="graph0" class="graph" transform="scale(1 1) rotate(0) translate(4 900.53)">
<title>G</title>
<polygon fill="white" stroke="none" points="-4,4 -4,-900.53 899.11,-900.53 899.11,4 -4,4"/>
<!-- P011 -->
<g id="node1" class="node">
<title>P011</title>
<g id="a_node1"><a xlink:href="#P011" xlink:title="JothiLakshmi Ramaraj">
<polygon fill="none" stroke="blue" points="535.24,-466.26 361.74,-466.26 361.74,-430.26 535.24,-430.26 535.24,-466.26"/>
<text xml:space="preserve" text-anchor="middle" x="448.49" y="-443.59" font-family="Times,serif" font-size="14.00">JothiLakshmi Ramaraj</text>
</a>
</g>
</g>
<!-- P008 -->
<g id="node2" class="node">
<title>P008</title>
<g id="a_node2"><a xlink:href="#P008" xlink:title="Ramaraj Kamatchi">
<polygon fill="none" stroke="blue" points="895.11,-681.39 747.11,-681.39 747.11,-645.39 895.11,-645.39 895.11,-681.39"/>
<text xml:space="preserve" text-anchor="middle" x="821.11" y="-658.72" font-family="Times,serif" font-size="14.00">Ramaraj Kamatchi</text>
</a>
</g>
</g>
<!-- P011&#45;&#45;P008 -->
<g id="edge1" class="edge">
<title>P011&#45;&#45;P008</title>
<path fill="none" stroke="black" d="M480.26,-466.61C550.57,-507.2 718.68,-604.25 789.16,-644.95"/>
<text xml:space="preserve" text-anchor="middle" x="612.96" y="-559.73" font-family="Times,serif" font-size="14.00">father</text>
</g>
<!-- P009 -->
<g id="node3" class="node">
<title>P009</title>
<g id="a_node3"><a xlink:href="#P009" xlink:title="Jayalakshmi Ramaraj">
<polygon fill="none" stroke="blue" points="531.49,-896.53 365.49,-896.53 365.49,-860.53 531.49,-860.53 531.49,-896.53"/>
<text xml:space="preserve" text-anchor="middle" x="448.49" y="-873.85" font-family="Times,serif" font-size="14.00">Jayalakshmi Ramaraj</text>
</a>
</g>
</g>
<!-- P011&#45;&#45;P009 -->
<g id="edge2" class="edge">
<title>P011&#45;&#45;P009</title>
<path fill="none" stroke="black" d="M448.49,-466.75C448.49,-537.36 448.49,-789.61 448.49,-860.11"/>
<text xml:space="preserve" text-anchor="middle" x="422.62" y="-667.38" font-family="Times,serif" font-size="14.00">mother</text>
</g>
<!-- P010 -->
<g id="node4" class="node">
<title>P010</title>
<g id="a_node4"><a xlink:href="#P010" xlink:title="Latha Narayanan">
<polygon fill="none" stroke="blue" points="145.38,-681.39 6.38,-681.39 6.38,-645.39 145.38,-645.39 145.38,-681.39"/>
<text xml:space="preserve" text-anchor="middle" x="75.88" y="-658.72" font-family="Times,serif" font-size="14.00">Latha Narayanan</text>
</a>
</g>
</g>
<!-- P011&#45;&#45;P010 -->
<g id="edge3" class="edge">
<title>P011&#45;&#45;P010</title>
<path fill="none" stroke="black" d="M416.72,-466.61C346.41,-507.2 178.31,-604.25 107.83,-644.95"/>
<text xml:space="preserve" text-anchor="middle" x="242.03" y="-559.73" font-family="Times,serif" font-size="14.00">sister</text>
</g>
<!-- P012 -->
<g id="node5" class="node">
<title>P012</title>
<g id="a_node5"><a xlink:href="#P012" xlink:title="RajKumar Ramaraj">
<polygon fill="none" stroke="blue" points="151.75,-251.13 0,-251.13 0,-215.13 151.75,-215.13 151.75,-251.13"/>
<text xml:space="preserve" text-anchor="middle" x="75.88" y="-228.46" font-family="Times,serif" font-size="14.00">RajKumar Ramaraj</text>
</a>
</g>
</g>
<!-- P011&#45;&#45;P012 -->
<g id="edge4" class="edge">
<title>P011&#45;&#45;P012</title>
<path fill="none" stroke="black" d="M416.72,-429.92C346.41,-389.33 178.31,-292.27 107.83,-251.58"/>
<text xml:space="preserve" text-anchor="middle" x="235.28" y="-344.7" font-family="Times,serif" font-size="14.00">brother</text>
</g>
<!-- P005 -->
<g id="node6" class="node">
<title>P005</title>
<g id="a_node6"><a xlink:href="#P005" xlink:title="Kamatchi Asari">
<polygon fill="none" stroke="blue" points="510.87,-36 386.12,-36 386.12,0 510.87,0 510.87,-36"/>
<text xml:space="preserve" text-anchor="middle" x="448.49" y="-13.32" font-family="Times,serif" font-size="14.00">Kamatchi Asari</text>
</a>
</g>
</g>
<!-- P011&#45;&#45;P005 -->
<g id="edge5" class="edge">
<title>P011&#45;&#45;P005</title>
<path fill="none" stroke="black" d="M448.49,-429.78C448.49,-359.16 448.49,-106.91 448.49,-36.42"/>
<text xml:space="preserve" text-anchor="middle" x="373.49" y="-237.05" font-family="Times,serif" font-size="14.00">paternal grandfather</text>
</g>
<!-- P007 -->
<g id="node7" class="node">
<title>P007</title>
<g id="a_node7"><a xlink:href="#P007" xlink:title="Subbammal">
<polygon fill="none" stroke="blue" points="871.49,-251.13 770.74,-251.13 770.74,-215.13 871.49,-215.13 871.49,-251.13"/>
<text xml:space="preserve" text-anchor="middle" x="821.11" y="-228.46" font-family="Times,serif" font-size="14.00">Subbammal</text>
</a>
</g>
</g>
<!-- P011&#45;&#45;P007 -->
<g id="edge6" class="edge">
<title>P011&#45;&#45;P007</title>
<path fill="none" stroke="black" d="M480.26,-429.92C550.57,-389.33 718.68,-292.27 789.16,-251.58"/>
<text xml:space="preserve" text-anchor="middle" x="555.59" y="-344.7" font-family="Times,serif" font-size="14.00">paternal grandmother</text>
</g>
</g>
</svg>
